<?xml version="1.0" encoding="utf-8"?>
<svg version="1.1" xmlns:xlink="http://www.w3.org/1999/xlink" width="283px" height="76px" xmlns="http://www.w3.org/2000/svg">
  <g transform="matrix(1 0 0 1 -11 -430 )">
    <path d="M 0.586017602758364 65.4248253334543  L 1 65.4248253334543  L 1 10.934851646856  C 0.600716813356314 10.2439887487524  0.674212866346061 9.56782506124671  0.806505761727605 8.89166137374104  C 0.938798657109149 8.21549768623538  1.14458760548044 7.55403320932766  1.40917339624353 6.92196715361584  C 1.67375918700662 6.28990109790399  1.9971418201615 5.67253425279014  2.37932129570819 5.09926503947011  C 2.76150077125487 4.52599582615008  3.20247708919335 3.99682424462392  3.68755103892568 3.51175029489158  C 4.17262498865801 3.02667634515925  4.70179657018419 2.58570002722078  5.27506578350421 2.20352055167407  C 5.84833499682424 1.8213410761274  6.45100263134016 1.4979584429725  7.09776789764994 1.23337265220943  C 7.74453316395971 0.968786861446347  8.39129843026948 0.762997913075054  9.06746211777515 0.630705017693515  C 9.74362580528082 0.498412122311976  10.4344887033844 0.424916069322222  11.1106523908901 1  L 271.904046819708 1  C 272.594909717811 0.424916069322222  273.271073405317 0.498412122311976  273.947237092823 0.630705017693515  C 274.623400780328 0.762997913075054  275.284865257236 0.968786861446347  275.916931312948 1.23337265220943  C 276.54899736866 1.4979584429725  277.166364213774 1.82134107612742  277.739633427094 2.20352055167407  C 278.312902640414 2.58570002722078  278.84207422194 3.02667634515925  279.327148171672 3.51175029489158  C 279.812222121405 3.99682424462392  280.253198439343 4.52599582615008  280.63537791489 5.09926503947011  C 281.017557390436 5.67253425279014  281.340940023591 6.27520188730605  281.605525814354 6.92196715361584  C 281.870111605117 7.5687324199256  282.075900553489 8.21549768623535  282.20819344887 8.89166137374104  C 282.340486344252 9.56782506124671  282.413982397242 10.2586879593503  282 10.934851646856  L 282 65.4248253334543  C 282.413982397242 66.1156882315579  282.340486344252 66.7918519190636  282.20819344887 67.4680156065693  C 282.075900553489 68.1441792940749  281.870111605117 68.8056437709826  281.605525814354 69.4377098266945  C 281.340940023591 70.0697758824063  281.017557390436 70.6871427275202  280.63537791489 71.2604119408402  C 280.253198439343 71.8336811541602  279.812222121405 72.3628527356864  279.327148171672 72.8479266854188  C 278.84207422194 73.3330006351511  278.312902640414 73.7739769530896  277.739633427094 74.1561564286363  C 277.166364213774 74.5383359041829  276.563696579258 74.8617185373378  275.916931312948 75.1263043281009  C 275.284865257236 75.390890118864  274.623400780328 75.5966790672353  273.947237092823 75.7289719626168  C 273.271073405317 75.8612648579984  272.580210507213 75.9347609109881  271.904046819708 76  L 11.0959531802922 76  C 10.4050902821885 75.9347609109881  9.72892659468287 75.8612648579983  9.0527629071772 75.7289719626168  C 8.37659921967153 75.5966790672353  7.71513474276381 75.390890118864  7.08306868705199 75.1263043281009  C 6.45100263134016 74.8617185373378  5.83363578622629 74.5383359041829  5.26036657290626 74.1561564286363  C 4.68709735958624 73.7739769530896  4.15792577806006 73.3330006351511  3.67285182832773 72.8479266854188  C 3.1877778785954 72.3628527356865  2.74680156065692 71.8336811541603  2.36462208511024 71.2604119408402  C 1.98244260956355 70.6871427275202  1.65905997640867 70.0844750930042  1.39447418564558 69.4377098266945  C 1.12988839488249 68.8056437709826  0.924099446511199 68.1441792940749  0.791806551129655 67.4680156065693  C 0.659513655748111 66.7918519190636  0.586017602758364 66.10098902096  0.586017602758364 65.4248253334543  Z " fill-rule="nonzero" fill="#f4f6f5" stroke="none" transform="matrix(1 0 0 1 11 430 )" />
  </g>
</svg>