<?xml version="1.0" encoding="utf-8"?>
<svg version="1.1" xmlns:xlink="http://www.w3.org/1999/xlink" width="183px" height="134px" xmlns="http://www.w3.org/2000/svg">
  <defs>
    <mask fill="white" id="clip13">
      <path d="M 0.0631698603442601 122.307459131753  L 0.0631698603442601 122.321966006279  L 0.0631698603442601 11.6780339937209  C 0.0631698603442601 10.9526902674028  0.135704232976082 10.2273465410848  0.295279852766043 9.5020028147667  C 0.454855472556034 8.79116596297499  0.686965464977817 8.09483598570965  0.991609830031365 7.41301288297066  C 1.29625419508497 6.73118978023168  1.67343293277037 6.09288730107178  2.12314604308756 5.4835985709646  C 2.57285915340478 4.87430984085742  3.08059976182741 4.30854173432933  3.64636786835553 3.80080112590668  C 4.21213597488361 3.27855364295767  4.83593157951714 2.82884053264047  5.50324780772979 2.40814117137599  C 6.17056403594242 2.00194868463787  6.88140088773409 1.6537836960052  7.62125148857856 1.37815308000433  C 8.36110208942296 1.10252246400347  9.12996643932013 0.884919346108045  9.91333766374368 0.739850600844432  C 10.6967088881672 0.594781855580818  11.4945869871171 0.522247482949011  12.2924650860669 0.522247482949011  L 170.722041788459 0.522247482949011  C 171.519919887409 0.522247482949011  172.317797986359 0.594781855580818  173.101169210783 0.739850600844432  C 173.884540435206 0.884919346108045  174.653404785103 1.0880155894771  175.393255385948 1.37815308000433  C 176.133105986792 1.6537836960052  176.843942838584 2.00194868463787  177.511259066797 2.40814117137599  C 178.178575295009 2.81433365811411  178.802370899643 3.27855364295767  179.368139006171 3.80080112590668  C 179.933907112699 4.32304860885569  180.441647721122 4.87430984085742  180.891360831439 5.4835985709646  C 181.341073941756 6.09288730107178  181.718252679441 6.73118978023168  182.022897044495 7.41301288297066  C 182.327541409548 8.09483598570965  182.55965140197 8.79116596297499  182.71922702176 9.5020028147667  C 182.87880264155 10.2128396665584  182.951337014182 10.9381833928765  182.951337014182 11.6780339937209  L 182.951337014182 122.307459131753  C 182.951337014182 123.032802858071  182.87880264155 123.758146584389  182.71922702176 124.483490310707  C 182.55965140197 125.194327162499  182.327541409549 125.890657139764  182.022897044495 126.572480242503  C 181.718252679441 127.254303345242  181.341073941756 127.892605824402  180.891360831439 128.501894554509  C 180.441647721122 129.111183284616  179.933907112699 129.676951391144  179.368139006171 130.184691999567  C 178.802370899643 130.706939482516  178.178575295009 131.156652592833  177.511259066797 131.562845079571  C 176.843942838584 131.969037566309  176.133105986792 132.317202554942  175.393255385948 132.592833170943  C 174.653404785103 132.868463786944  173.884540435206 133.086066904839  173.101169210783 133.231135650103  C 172.317797986359 133.376204395366  171.519919887409 133.448738767998  170.722041788459 133.448738767998  L 12.2924650860669 133.448738767998  C 11.494586987117 133.448738767998  10.6967088881672 133.376204395366  9.91333766374368 133.231135650103  C 9.12996643932016 133.086066904839  8.36110208942301 132.88297066147  7.62125148857856 132.592833170943  C 6.88140088773415 132.317202554942  6.17056403594242 131.969037566309  5.50324780772979 131.562845079571  C 4.83593157951714 131.156652592833  4.21213597488364 130.69243260799  3.64636786835553 130.184691999567  C 3.08059976182744 129.662444516618  2.57285915340478 129.111183284616  2.12314604308756 128.501894554509  C 1.67343293277037 127.892605824402  1.29625419508497 127.254303345242  0.991609830031365 126.572480242503  C 0.68696546497776 125.890657139764  0.454855472556005 125.194327162499  0.295279852766043 124.483490310707  C 0.135704232976053 123.772653458915  0.0631698603442601 123.047309732597  0.0631698603442601 122.307459131753  Z " fill-rule="evenodd" />
    </mask>
  </defs>
  <g transform="matrix(1 0 0 1 -207 -622 )">
    <path d="M 0.0631698603442601 122.307459131753  L 0.0631698603442601 122.321966006279  L 0.0631698603442601 11.6780339937209  C 0.0631698603442601 10.9526902674028  0.135704232976082 10.2273465410848  0.295279852766043 9.5020028147667  C 0.454855472556034 8.79116596297499  0.686965464977817 8.09483598570965  0.991609830031365 7.41301288297066  C 1.29625419508497 6.73118978023168  1.67343293277037 6.09288730107178  2.12314604308756 5.4835985709646  C 2.57285915340478 4.87430984085742  3.08059976182741 4.30854173432933  3.64636786835553 3.80080112590668  C 4.21213597488361 3.27855364295767  4.83593157951714 2.82884053264047  5.50324780772979 2.40814117137599  C 6.17056403594242 2.00194868463787  6.88140088773409 1.6537836960052  7.62125148857856 1.37815308000433  C 8.36110208942296 1.10252246400347  9.12996643932013 0.884919346108045  9.91333766374368 0.739850600844432  C 10.6967088881672 0.594781855580818  11.4945869871171 0.522247482949011  12.2924650860669 0.522247482949011  L 170.722041788459 0.522247482949011  C 171.519919887409 0.522247482949011  172.317797986359 0.594781855580818  173.101169210783 0.739850600844432  C 173.884540435206 0.884919346108045  174.653404785103 1.0880155894771  175.393255385948 1.37815308000433  C 176.133105986792 1.6537836960052  176.843942838584 2.00194868463787  177.511259066797 2.40814117137599  C 178.178575295009 2.81433365811411  178.802370899643 3.27855364295767  179.368139006171 3.80080112590668  C 179.933907112699 4.32304860885569  180.441647721122 4.87430984085742  180.891360831439 5.4835985709646  C 181.341073941756 6.09288730107178  181.718252679441 6.73118978023168  182.022897044495 7.41301288297066  C 182.327541409548 8.09483598570965  182.55965140197 8.79116596297499  182.71922702176 9.5020028147667  C 182.87880264155 10.2128396665584  182.951337014182 10.9381833928765  182.951337014182 11.6780339937209  L 182.951337014182 122.307459131753  C 182.951337014182 123.032802858071  182.87880264155 123.758146584389  182.71922702176 124.483490310707  C 182.55965140197 125.194327162499  182.327541409549 125.890657139764  182.022897044495 126.572480242503  C 181.718252679441 127.254303345242  181.341073941756 127.892605824402  180.891360831439 128.501894554509  C 180.441647721122 129.111183284616  179.933907112699 129.676951391144  179.368139006171 130.184691999567  C 178.802370899643 130.706939482516  178.178575295009 131.156652592833  177.511259066797 131.562845079571  C 176.843942838584 131.969037566309  176.133105986792 132.317202554942  175.393255385948 132.592833170943  C 174.653404785103 132.868463786944  173.884540435206 133.086066904839  173.101169210783 133.231135650103  C 172.317797986359 133.376204395366  171.519919887409 133.448738767998  170.722041788459 133.448738767998  L 12.2924650860669 133.448738767998  C 11.494586987117 133.448738767998  10.6967088881672 133.376204395366  9.91333766374368 133.231135650103  C 9.12996643932016 133.086066904839  8.36110208942301 132.88297066147  7.62125148857856 132.592833170943  C 6.88140088773415 132.317202554942  6.17056403594242 131.969037566309  5.50324780772979 131.562845079571  C 4.83593157951714 131.156652592833  4.21213597488364 130.69243260799  3.64636786835553 130.184691999567  C 3.08059976182744 129.662444516618  2.57285915340478 129.111183284616  2.12314604308756 128.501894554509  C 1.67343293277037 127.892605824402  1.29625419508497 127.254303345242  0.991609830031365 126.572480242503  C 0.68696546497776 125.890657139764  0.454855472556005 125.194327162499  0.295279852766043 124.483490310707  C 0.135704232976053 123.772653458915  0.0631698603442601 123.047309732597  0.0631698603442601 122.307459131753  Z " fill-rule="nonzero" fill="#f4f6f5" stroke="none" transform="matrix(1 0 0 1 207 622 )" />
    <path d="M 0.0631698603442601 122.307459131753  L 0.0631698603442601 122.321966006279  L 0.0631698603442601 11.6780339937209  C 0.0631698603442601 10.9526902674028  0.135704232976082 10.2273465410848  0.295279852766043 9.5020028147667  C 0.454855472556034 8.79116596297499  0.686965464977817 8.09483598570965  0.991609830031365 7.41301288297066  C 1.29625419508497 6.73118978023168  1.67343293277037 6.09288730107178  2.12314604308756 5.4835985709646  C 2.57285915340478 4.87430984085742  3.08059976182741 4.30854173432933  3.64636786835553 3.80080112590668  C 4.21213597488361 3.27855364295767  4.83593157951714 2.82884053264047  5.50324780772979 2.40814117137599  C 6.17056403594242 2.00194868463787  6.88140088773409 1.6537836960052  7.62125148857856 1.37815308000433  C 8.36110208942296 1.10252246400347  9.12996643932013 0.884919346108045  9.91333766374368 0.739850600844432  C 10.6967088881672 0.594781855580818  11.4945869871171 0.522247482949011  12.2924650860669 0.522247482949011  L 170.722041788459 0.522247482949011  C 171.519919887409 0.522247482949011  172.317797986359 0.594781855580818  173.101169210783 0.739850600844432  C 173.884540435206 0.884919346108045  174.653404785103 1.0880155894771  175.393255385948 1.37815308000433  C 176.133105986792 1.6537836960052  176.843942838584 2.00194868463787  177.511259066797 2.40814117137599  C 178.178575295009 2.81433365811411  178.802370899643 3.27855364295767  179.368139006171 3.80080112590668  C 179.933907112699 4.32304860885569  180.441647721122 4.87430984085742  180.891360831439 5.4835985709646  C 181.341073941756 6.09288730107178  181.718252679441 6.73118978023168  182.022897044495 7.41301288297066  C 182.327541409548 8.09483598570965  182.55965140197 8.79116596297499  182.71922702176 9.5020028147667  C 182.87880264155 10.2128396665584  182.951337014182 10.9381833928765  182.951337014182 11.6780339937209  L 182.951337014182 122.307459131753  C 182.951337014182 123.032802858071  182.87880264155 123.758146584389  182.71922702176 124.483490310707  C 182.55965140197 125.194327162499  182.327541409549 125.890657139764  182.022897044495 126.572480242503  C 181.718252679441 127.254303345242  181.341073941756 127.892605824402  180.891360831439 128.501894554509  C 180.441647721122 129.111183284616  179.933907112699 129.676951391144  179.368139006171 130.184691999567  C 178.802370899643 130.706939482516  178.178575295009 131.156652592833  177.511259066797 131.562845079571  C 176.843942838584 131.969037566309  176.133105986792 132.317202554942  175.393255385948 132.592833170943  C 174.653404785103 132.868463786944  173.884540435206 133.086066904839  173.101169210783 133.231135650103  C 172.317797986359 133.376204395366  171.519919887409 133.448738767998  170.722041788459 133.448738767998  L 12.2924650860669 133.448738767998  C 11.494586987117 133.448738767998  10.6967088881672 133.376204395366  9.91333766374368 133.231135650103  C 9.12996643932016 133.086066904839  8.36110208942301 132.88297066147  7.62125148857856 132.592833170943  C 6.88140088773415 132.317202554942  6.17056403594242 131.969037566309  5.50324780772979 131.562845079571  C 4.83593157951714 131.156652592833  4.21213597488364 130.69243260799  3.64636786835553 130.184691999567  C 3.08059976182744 129.662444516618  2.57285915340478 129.111183284616  2.12314604308756 128.501894554509  C 1.67343293277037 127.892605824402  1.29625419508497 127.254303345242  0.991609830031365 126.572480242503  C 0.68696546497776 125.890657139764  0.454855472556005 125.194327162499  0.295279852766043 124.483490310707  C 0.135704232976053 123.772653458915  0.0631698603442601 123.047309732597  0.0631698603442601 122.307459131753  Z " stroke-width="2" stroke="#d8dedd" fill="none" transform="matrix(1 0 0 1 207 622 )" mask="url(#clip13)" />
  </g>
</svg>